<svg width="16" height="14" viewBox="0 0 16 14" fill="none" xmlns="http://www.w3.org/2000/svg">
<path d="M9.70711 0.292893C9.31658 -0.0976311 8.68342 -0.0976311 8.29289 0.292893C7.90237 0.683417 7.90237 1.31658 8.29289 1.70711L12.5858 6H1C0.447715 6 0 6.44772 0 7C0 7.55228 0.447715 8 1 8H12.5858L8.29289 12.2929C7.90237 12.6834 7.90237 13.3166 8.29289 13.7071C8.68342 14.0976 9.31658 14.0976 9.70711 13.7071L15.7018 7.71236C15.7205 7.69395 15.7385 7.67477 15.7558 7.65487C15.8885 7.50199 15.9672 7.31842 15.9917 7.12918C16.0002 7.06364 16.0022 6.99775 15.9977 6.93248C15.9821 6.69951 15.8852 6.47097 15.7071 6.29289L9.70711 0.292893Z" fill="#06838C"/>
</svg>
